<mxfile host="Electron" agent="Mozilla/5.0 (X11; Linux x86_64) AppleWebKit/537.36 (KHTML, like Gecko) draw.io/24.7.17 Chrome/128.0.6613.36 Electron/32.0.1 Safari/537.36" version="24.7.17">
  <diagram name="Page-1" id="3SeLqW3MozsBk1D6YjDt">
    <mxGraphModel dx="1372" dy="843" grid="1" gridSize="10" guides="1" tooltips="1" connect="1" arrows="1" fold="1" page="1" pageScale="1" pageWidth="850" pageHeight="1100" math="0" shadow="0">
      <root>
        <mxCell id="0" />
        <mxCell id="1" parent="0" />
        <mxCell id="VvJ8ERzcW41YnhicoC6R-1" value="GreedyP&lt;span style=&quot;background-color: initial;&quot;&gt;et&lt;/span&gt;" style="swimlane;fontStyle=0;childLayout=stackLayout;horizontal=1;startSize=26;fillColor=none;horizontalStack=0;resizeParent=1;resizeParentMax=0;resizeLast=0;collapsible=1;marginBottom=0;whiteSpace=wrap;html=1;" vertex="1" parent="1">
          <mxGeometry x="251" y="60" width="140" height="78" as="geometry" />
        </mxCell>
        <mxCell id="VvJ8ERzcW41YnhicoC6R-14" value="+ market" style="text;strokeColor=none;fillColor=none;align=left;verticalAlign=top;spacingLeft=4;spacingRight=4;overflow=hidden;rotatable=0;points=[[0,0.5],[1,0.5]];portConstraint=eastwest;whiteSpace=wrap;html=1;" vertex="1" parent="VvJ8ERzcW41YnhicoC6R-1">
          <mxGeometry y="26" width="140" height="26" as="geometry" />
        </mxCell>
        <mxCell id="VvJ8ERzcW41YnhicoC6R-15" value="+ symbol" style="text;strokeColor=none;fillColor=none;align=left;verticalAlign=top;spacingLeft=4;spacingRight=4;overflow=hidden;rotatable=0;points=[[0,0.5],[1,0.5]];portConstraint=eastwest;whiteSpace=wrap;html=1;" vertex="1" parent="VvJ8ERzcW41YnhicoC6R-1">
          <mxGeometry y="52" width="140" height="26" as="geometry" />
        </mxCell>
        <mxCell id="VvJ8ERzcW41YnhicoC6R-5" value="Excahnge" style="swimlane;fontStyle=0;childLayout=stackLayout;horizontal=1;startSize=26;fillColor=none;horizontalStack=0;resizeParent=1;resizeParentMax=0;resizeLast=0;collapsible=1;marginBottom=0;whiteSpace=wrap;html=1;" vertex="1" parent="1">
          <mxGeometry x="450" y="73" width="140" height="52" as="geometry" />
        </mxCell>
        <mxCell id="VvJ8ERzcW41YnhicoC6R-9" value="Deal" style="swimlane;fontStyle=0;childLayout=stackLayout;horizontal=1;startSize=26;fillColor=none;horizontalStack=0;resizeParent=1;resizeParentMax=0;resizeLast=0;collapsible=1;marginBottom=0;whiteSpace=wrap;html=1;" vertex="1" parent="1">
          <mxGeometry x="250" y="210" width="140" height="78" as="geometry" />
        </mxCell>
        <mxCell id="VvJ8ERzcW41YnhicoC6R-10" value="+ state" style="text;strokeColor=none;fillColor=none;align=left;verticalAlign=top;spacingLeft=4;spacingRight=4;overflow=hidden;rotatable=0;points=[[0,0.5],[1,0.5]];portConstraint=eastwest;whiteSpace=wrap;html=1;" vertex="1" parent="VvJ8ERzcW41YnhicoC6R-9">
          <mxGeometry y="26" width="140" height="26" as="geometry" />
        </mxCell>
        <mxCell id="VvJ8ERzcW41YnhicoC6R-11" value="+ algorithem" style="text;strokeColor=none;fillColor=none;align=left;verticalAlign=top;spacingLeft=4;spacingRight=4;overflow=hidden;rotatable=0;points=[[0,0.5],[1,0.5]];portConstraint=eastwest;whiteSpace=wrap;html=1;" vertex="1" parent="VvJ8ERzcW41YnhicoC6R-9">
          <mxGeometry y="52" width="140" height="26" as="geometry" />
        </mxCell>
        <mxCell id="VvJ8ERzcW41YnhicoC6R-18" value="EntryCondition" style="swimlane;fontStyle=0;childLayout=stackLayout;horizontal=1;startSize=26;fillColor=none;horizontalStack=0;resizeParent=1;resizeParentMax=0;resizeLast=0;collapsible=1;marginBottom=0;whiteSpace=wrap;html=1;" vertex="1" parent="1">
          <mxGeometry x="150" y="340" width="140" height="52" as="geometry" />
        </mxCell>
        <mxCell id="VvJ8ERzcW41YnhicoC6R-22" value="ExitCondition" style="swimlane;fontStyle=0;childLayout=stackLayout;horizontal=1;startSize=26;fillColor=none;horizontalStack=0;resizeParent=1;resizeParentMax=0;resizeLast=0;collapsible=1;marginBottom=0;whiteSpace=wrap;html=1;" vertex="1" parent="1">
          <mxGeometry x="360" y="342" width="140" height="52" as="geometry" />
        </mxCell>
        <mxCell id="VvJ8ERzcW41YnhicoC6R-46" value="+ mode: type" style="text;strokeColor=none;fillColor=none;align=left;verticalAlign=top;spacingLeft=4;spacingRight=4;overflow=hidden;rotatable=0;points=[[0,0.5],[1,0.5]];portConstraint=eastwest;whiteSpace=wrap;html=1;" vertex="1" parent="VvJ8ERzcW41YnhicoC6R-22">
          <mxGeometry y="26" width="140" height="26" as="geometry" />
        </mxCell>
        <mxCell id="VvJ8ERzcW41YnhicoC6R-34" value="Filter" style="swimlane;fontStyle=1;align=center;verticalAlign=top;childLayout=stackLayout;horizontal=1;startSize=26;horizontalStack=0;resizeParent=1;resizeParentMax=0;resizeLast=0;collapsible=1;marginBottom=0;whiteSpace=wrap;html=1;" vertex="1" parent="1">
          <mxGeometry x="246" y="430" width="160" height="138" as="geometry" />
        </mxCell>
        <mxCell id="VvJ8ERzcW41YnhicoC6R-35" value="+ condition: type" style="text;strokeColor=none;fillColor=none;align=left;verticalAlign=top;spacingLeft=4;spacingRight=4;overflow=hidden;rotatable=0;points=[[0,0.5],[1,0.5]];portConstraint=eastwest;whiteSpace=wrap;html=1;" vertex="1" parent="VvJ8ERzcW41YnhicoC6R-34">
          <mxGeometry y="26" width="160" height="26" as="geometry" />
        </mxCell>
        <mxCell id="VvJ8ERzcW41YnhicoC6R-37" value="+ timeframe: type" style="text;strokeColor=none;fillColor=none;align=left;verticalAlign=top;spacingLeft=4;spacingRight=4;overflow=hidden;rotatable=0;points=[[0,0.5],[1,0.5]];portConstraint=eastwest;whiteSpace=wrap;html=1;" vertex="1" parent="VvJ8ERzcW41YnhicoC6R-34">
          <mxGeometry y="52" width="160" height="26" as="geometry" />
        </mxCell>
        <mxCell id="VvJ8ERzcW41YnhicoC6R-39" value="+ state: type" style="text;strokeColor=none;fillColor=none;align=left;verticalAlign=top;spacingLeft=4;spacingRight=4;overflow=hidden;rotatable=0;points=[[0,0.5],[1,0.5]];portConstraint=eastwest;whiteSpace=wrap;html=1;" vertex="1" parent="VvJ8ERzcW41YnhicoC6R-34">
          <mxGeometry y="78" width="160" height="26" as="geometry" />
        </mxCell>
        <mxCell id="VvJ8ERzcW41YnhicoC6R-36" value="" style="line;strokeWidth=1;fillColor=none;align=left;verticalAlign=middle;spacingTop=-1;spacingLeft=3;spacingRight=3;rotatable=0;labelPosition=right;points=[];portConstraint=eastwest;strokeColor=inherit;" vertex="1" parent="VvJ8ERzcW41YnhicoC6R-34">
          <mxGeometry y="104" width="160" height="8" as="geometry" />
        </mxCell>
        <mxCell id="VvJ8ERzcW41YnhicoC6R-40" value="+ apply: type" style="text;strokeColor=none;fillColor=none;align=left;verticalAlign=top;spacingLeft=4;spacingRight=4;overflow=hidden;rotatable=0;points=[[0,0.5],[1,0.5]];portConstraint=eastwest;whiteSpace=wrap;html=1;" vertex="1" parent="VvJ8ERzcW41YnhicoC6R-34">
          <mxGeometry y="112" width="160" height="26" as="geometry" />
        </mxCell>
        <mxCell id="VvJ8ERzcW41YnhicoC6R-49" value="SimpleIndicator" style="swimlane;fontStyle=1;align=center;verticalAlign=top;childLayout=stackLayout;horizontal=1;startSize=26;horizontalStack=0;resizeParent=1;resizeParentMax=0;resizeLast=0;collapsible=1;marginBottom=0;whiteSpace=wrap;html=1;" vertex="1" parent="1">
          <mxGeometry x="520" y="568" width="160" height="86" as="geometry" />
        </mxCell>
        <mxCell id="VvJ8ERzcW41YnhicoC6R-50" value="+ periods: int" style="text;strokeColor=none;fillColor=none;align=left;verticalAlign=top;spacingLeft=4;spacingRight=4;overflow=hidden;rotatable=0;points=[[0,0.5],[1,0.5]];portConstraint=eastwest;whiteSpace=wrap;html=1;" vertex="1" parent="VvJ8ERzcW41YnhicoC6R-49">
          <mxGeometry y="26" width="160" height="26" as="geometry" />
        </mxCell>
        <mxCell id="VvJ8ERzcW41YnhicoC6R-51" value="" style="line;strokeWidth=1;fillColor=none;align=left;verticalAlign=middle;spacingTop=-1;spacingLeft=3;spacingRight=3;rotatable=0;labelPosition=right;points=[];portConstraint=eastwest;strokeColor=inherit;" vertex="1" parent="VvJ8ERzcW41YnhicoC6R-49">
          <mxGeometry y="52" width="160" height="8" as="geometry" />
        </mxCell>
        <mxCell id="VvJ8ERzcW41YnhicoC6R-52" value="+ method(type): type" style="text;strokeColor=none;fillColor=none;align=left;verticalAlign=top;spacingLeft=4;spacingRight=4;overflow=hidden;rotatable=0;points=[[0,0.5],[1,0.5]];portConstraint=eastwest;whiteSpace=wrap;html=1;" vertex="1" parent="VvJ8ERzcW41YnhicoC6R-49">
          <mxGeometry y="60" width="160" height="26" as="geometry" />
        </mxCell>
        <mxCell id="VvJ8ERzcW41YnhicoC6R-53" value="ComplexIndicator" style="swimlane;fontStyle=1;align=center;verticalAlign=top;childLayout=stackLayout;horizontal=1;startSize=26;horizontalStack=0;resizeParent=1;resizeParentMax=0;resizeLast=0;collapsible=1;marginBottom=0;whiteSpace=wrap;html=1;" vertex="1" parent="1">
          <mxGeometry x="517" y="710" width="160" height="86" as="geometry" />
        </mxCell>
        <mxCell id="VvJ8ERzcW41YnhicoC6R-54" value="+ field: type" style="text;strokeColor=none;fillColor=none;align=left;verticalAlign=top;spacingLeft=4;spacingRight=4;overflow=hidden;rotatable=0;points=[[0,0.5],[1,0.5]];portConstraint=eastwest;whiteSpace=wrap;html=1;" vertex="1" parent="VvJ8ERzcW41YnhicoC6R-53">
          <mxGeometry y="26" width="160" height="26" as="geometry" />
        </mxCell>
        <mxCell id="VvJ8ERzcW41YnhicoC6R-55" value="" style="line;strokeWidth=1;fillColor=none;align=left;verticalAlign=middle;spacingTop=-1;spacingLeft=3;spacingRight=3;rotatable=0;labelPosition=right;points=[];portConstraint=eastwest;strokeColor=inherit;" vertex="1" parent="VvJ8ERzcW41YnhicoC6R-53">
          <mxGeometry y="52" width="160" height="8" as="geometry" />
        </mxCell>
        <mxCell id="VvJ8ERzcW41YnhicoC6R-56" value="+ method(type): type" style="text;strokeColor=none;fillColor=none;align=left;verticalAlign=top;spacingLeft=4;spacingRight=4;overflow=hidden;rotatable=0;points=[[0,0.5],[1,0.5]];portConstraint=eastwest;whiteSpace=wrap;html=1;" vertex="1" parent="VvJ8ERzcW41YnhicoC6R-53">
          <mxGeometry y="60" width="160" height="26" as="geometry" />
        </mxCell>
        <mxCell id="VvJ8ERzcW41YnhicoC6R-57" value="BaseIndicator" style="swimlane;fontStyle=1;align=center;verticalAlign=top;childLayout=stackLayout;horizontal=1;startSize=26;horizontalStack=0;resizeParent=1;resizeParentMax=0;resizeLast=0;collapsible=1;marginBottom=0;whiteSpace=wrap;html=1;" vertex="1" parent="1">
          <mxGeometry x="260" y="630" width="160" height="86" as="geometry" />
        </mxCell>
        <mxCell id="VvJ8ERzcW41YnhicoC6R-58" value="+ field: type" style="text;strokeColor=none;fillColor=none;align=left;verticalAlign=top;spacingLeft=4;spacingRight=4;overflow=hidden;rotatable=0;points=[[0,0.5],[1,0.5]];portConstraint=eastwest;whiteSpace=wrap;html=1;" vertex="1" parent="VvJ8ERzcW41YnhicoC6R-57">
          <mxGeometry y="26" width="160" height="26" as="geometry" />
        </mxCell>
        <mxCell id="VvJ8ERzcW41YnhicoC6R-59" value="" style="line;strokeWidth=1;fillColor=none;align=left;verticalAlign=middle;spacingTop=-1;spacingLeft=3;spacingRight=3;rotatable=0;labelPosition=right;points=[];portConstraint=eastwest;strokeColor=inherit;" vertex="1" parent="VvJ8ERzcW41YnhicoC6R-57">
          <mxGeometry y="52" width="160" height="8" as="geometry" />
        </mxCell>
        <mxCell id="VvJ8ERzcW41YnhicoC6R-60" value="+ calculate(): type" style="text;strokeColor=none;fillColor=none;align=left;verticalAlign=top;spacingLeft=4;spacingRight=4;overflow=hidden;rotatable=0;points=[[0,0.5],[1,0.5]];portConstraint=eastwest;whiteSpace=wrap;html=1;" vertex="1" parent="VvJ8ERzcW41YnhicoC6R-57">
          <mxGeometry y="60" width="160" height="26" as="geometry" />
        </mxCell>
        <mxCell id="VvJ8ERzcW41YnhicoC6R-61" value="" style="endArrow=block;endSize=16;endFill=0;html=1;rounded=0;entryX=1.019;entryY=-0.115;entryDx=0;entryDy=0;entryPerimeter=0;exitX=0;exitY=0.5;exitDx=0;exitDy=0;" edge="1" parent="1" source="VvJ8ERzcW41YnhicoC6R-50" target="VvJ8ERzcW41YnhicoC6R-58">
          <mxGeometry x="-0.0012" width="160" relative="1" as="geometry">
            <mxPoint x="540" y="640" as="sourcePoint" />
            <mxPoint x="500" y="430" as="targetPoint" />
            <mxPoint as="offset" />
          </mxGeometry>
        </mxCell>
        <mxCell id="VvJ8ERzcW41YnhicoC6R-64" value="" style="endArrow=block;endSize=16;endFill=0;html=1;rounded=0;entryX=1.006;entryY=0;entryDx=0;entryDy=0;entryPerimeter=0;exitX=0;exitY=0.5;exitDx=0;exitDy=0;" edge="1" parent="1" source="VvJ8ERzcW41YnhicoC6R-54" target="VvJ8ERzcW41YnhicoC6R-60">
          <mxGeometry width="160" relative="1" as="geometry">
            <mxPoint x="340" y="430" as="sourcePoint" />
            <mxPoint x="500" y="430" as="targetPoint" />
          </mxGeometry>
        </mxCell>
        <mxCell id="VvJ8ERzcW41YnhicoC6R-67" value="" style="endArrow=diamondThin;endFill=1;endSize=24;html=1;rounded=0;exitX=0.475;exitY=1;exitDx=0;exitDy=0;exitPerimeter=0;" edge="1" parent="1" source="VvJ8ERzcW41YnhicoC6R-52" target="VvJ8ERzcW41YnhicoC6R-53">
          <mxGeometry width="160" relative="1" as="geometry">
            <mxPoint x="580" y="460" as="sourcePoint" />
            <mxPoint x="740" y="460" as="targetPoint" />
          </mxGeometry>
        </mxCell>
        <mxCell id="VvJ8ERzcW41YnhicoC6R-70" value="" style="endArrow=block;endFill=1;html=1;edgeStyle=orthogonalEdgeStyle;align=left;verticalAlign=top;rounded=0;exitX=1;exitY=0.5;exitDx=0;exitDy=0;entryX=0.5;entryY=0;entryDx=0;entryDy=0;" edge="1" parent="1" source="VvJ8ERzcW41YnhicoC6R-10" target="VvJ8ERzcW41YnhicoC6R-22">
          <mxGeometry x="-1" relative="1" as="geometry">
            <mxPoint x="500" y="230" as="sourcePoint" />
            <mxPoint x="660" y="230" as="targetPoint" />
          </mxGeometry>
        </mxCell>
        <mxCell id="VvJ8ERzcW41YnhicoC6R-72" value="" style="endArrow=block;endFill=1;html=1;edgeStyle=orthogonalEdgeStyle;align=left;verticalAlign=top;rounded=0;exitX=0;exitY=0.5;exitDx=0;exitDy=0;entryX=0.414;entryY=-0.058;entryDx=0;entryDy=0;entryPerimeter=0;" edge="1" parent="1" source="VvJ8ERzcW41YnhicoC6R-10" target="VvJ8ERzcW41YnhicoC6R-18">
          <mxGeometry x="-1" relative="1" as="geometry">
            <mxPoint x="150" y="240" as="sourcePoint" />
            <mxPoint x="190" y="331" as="targetPoint" />
          </mxGeometry>
        </mxCell>
        <mxCell id="VvJ8ERzcW41YnhicoC6R-73" value="" style="endArrow=block;endFill=1;html=1;edgeStyle=orthogonalEdgeStyle;align=left;verticalAlign=top;rounded=0;exitX=0.493;exitY=1.038;exitDx=0;exitDy=0;entryX=0.5;entryY=0;entryDx=0;entryDy=0;exitPerimeter=0;" edge="1" parent="1" source="VvJ8ERzcW41YnhicoC6R-15" target="VvJ8ERzcW41YnhicoC6R-9">
          <mxGeometry x="-1" relative="1" as="geometry">
            <mxPoint x="320" y="150" as="sourcePoint" />
            <mxPoint x="360" y="241" as="targetPoint" />
          </mxGeometry>
        </mxCell>
        <mxCell id="VvJ8ERzcW41YnhicoC6R-74" value="" style="endArrow=block;endFill=1;html=1;edgeStyle=orthogonalEdgeStyle;align=left;verticalAlign=top;rounded=0;exitX=1;exitY=0.5;exitDx=0;exitDy=0;" edge="1" parent="1" source="VvJ8ERzcW41YnhicoC6R-14">
          <mxGeometry x="-1" relative="1" as="geometry">
            <mxPoint x="410" y="110" as="sourcePoint" />
            <mxPoint x="450" y="99" as="targetPoint" />
          </mxGeometry>
        </mxCell>
        <mxCell id="VvJ8ERzcW41YnhicoC6R-75" value="" style="endArrow=block;endFill=1;html=1;edgeStyle=orthogonalEdgeStyle;align=left;verticalAlign=top;rounded=0;exitX=0.5;exitY=1;exitDx=0;exitDy=0;entryX=0;entryY=0.5;entryDx=0;entryDy=0;" edge="1" parent="1" source="VvJ8ERzcW41YnhicoC6R-18" target="VvJ8ERzcW41YnhicoC6R-35">
          <mxGeometry x="-1" relative="1" as="geometry">
            <mxPoint x="160" y="430" as="sourcePoint" />
            <mxPoint x="200" y="521" as="targetPoint" />
          </mxGeometry>
        </mxCell>
        <mxCell id="VvJ8ERzcW41YnhicoC6R-77" value="" style="endArrow=block;endFill=1;html=1;edgeStyle=orthogonalEdgeStyle;align=left;verticalAlign=top;rounded=0;exitX=0.571;exitY=1;exitDx=0;exitDy=0;entryX=0.988;entryY=0.269;entryDx=0;entryDy=0;exitPerimeter=0;entryPerimeter=0;" edge="1" parent="1" source="VvJ8ERzcW41YnhicoC6R-46" target="VvJ8ERzcW41YnhicoC6R-35">
          <mxGeometry x="-1" relative="1" as="geometry">
            <mxPoint x="480" y="420" as="sourcePoint" />
            <mxPoint x="520" y="511" as="targetPoint" />
          </mxGeometry>
        </mxCell>
        <mxCell id="VvJ8ERzcW41YnhicoC6R-78" value="" style="endArrow=block;endFill=1;html=1;edgeStyle=orthogonalEdgeStyle;align=left;verticalAlign=top;rounded=0;entryX=0.5;entryY=0;entryDx=0;entryDy=0;exitX=0.588;exitY=0.962;exitDx=0;exitDy=0;exitPerimeter=0;" edge="1" parent="1" source="VvJ8ERzcW41YnhicoC6R-40" target="VvJ8ERzcW41YnhicoC6R-57">
          <mxGeometry x="-1" relative="1" as="geometry">
            <mxPoint x="220" y="590" as="sourcePoint" />
            <mxPoint x="160" y="671" as="targetPoint" />
          </mxGeometry>
        </mxCell>
      </root>
    </mxGraphModel>
  </diagram>
</mxfile>
